<svg width="142" height="27" viewBox="0 0 142 27" fill="none" xmlns="http://www.w3.org/2000/svg">
<path d="M33.5209 3.13849C33.3492 2.96926 33.2144 2.76609 33.1249 2.54186C33.0354 2.31764 32.9933 2.07723 33.0011 1.83581C32.9924 1.59084 33.0351 1.34677 33.1264 1.11942C33.2177 0.892071 33.3556 0.686519 33.5311 0.516089C33.7084 0.344467 33.9182 0.210425 34.1482 0.121957C34.3782 0.0334898 34.6235 -0.0075951 34.8697 0.00115359C35.1163 -0.00727964 35.3621 0.0339354 35.5926 0.122374C35.823 0.210812 36.0335 0.344686 36.2117 0.516089C36.3861 0.6872 36.523 0.892948 36.6136 1.12019C36.7043 1.34743 36.7468 1.59117 36.7382 1.83581C36.7459 2.07691 36.704 2.31699 36.6152 2.54111C36.5263 2.76524 36.3924 2.96859 36.2218 3.13849C36.0413 3.31123 35.8279 3.44558 35.5944 3.53348C35.3609 3.62138 35.112 3.66101 34.8629 3.65001C34.6165 3.65948 34.3706 3.61907 34.1401 3.53119C33.9095 3.44331 33.699 3.30976 33.5209 3.13849ZM33.2593 4.68669H36.4461V15.2241H33.2593V4.68669Z" fill="white"/>
<path d="M48.5163 15.2306H44.5753L41.5177 11.0498V15.2306H38.3547V0.301025H41.5244V8.68315L44.3035 4.6933H47.9387L44.3239 9.68573L48.5163 15.2306Z" fill="white"/>
<path d="M49.2773 3.13849C49.1056 2.96926 48.9708 2.76609 48.8813 2.54186C48.7918 2.31764 48.7497 2.07723 48.7575 1.83581C48.7488 1.59084 48.7915 1.34677 48.8828 1.11942C48.9741 0.892071 49.112 0.686518 49.2875 0.516089C49.4648 0.344467 49.6746 0.210425 49.9046 0.121957C50.1346 0.0334898 50.38 -0.0075951 50.6261 0.00115359C50.8727 -0.00727964 51.1185 0.0339354 51.349 0.122374C51.5794 0.210812 51.7899 0.344686 51.9681 0.516089C52.1425 0.6872 52.2794 0.892948 52.3701 1.12019C52.4607 1.34743 52.5032 1.59117 52.4947 1.83581C52.5023 2.07691 52.4604 2.31699 52.3716 2.54111C52.2827 2.76524 52.1488 2.96859 51.9783 3.13849C51.7977 3.31123 51.5843 3.44558 51.3508 3.53348C51.1173 3.62138 50.8685 3.66101 50.6193 3.65001C50.3729 3.65948 50.127 3.61907 49.8965 3.53119C49.6659 3.44331 49.4554 3.30976 49.2773 3.13849ZM49.0225 4.69352H52.2093V15.2309H49.0225V4.69352Z" fill="white"/>
<path d="M64.0191 14.8558C64.3955 15.4517 64.5892 16.1453 64.5763 16.8507C64.5934 17.6809 64.3562 18.4963 63.8968 19.1867C63.4088 19.8821 62.7319 20.4219 61.9467 20.7417C61.0192 21.123 60.0235 21.3087 59.0215 21.2874C58.046 21.3089 57.0773 21.1193 56.1813 20.7315C55.4139 20.4023 54.7603 19.853 54.3025 19.1526C53.8548 18.4463 53.6255 17.6229 53.6434 16.786C53.6344 16.6178 53.6344 16.4494 53.6434 16.2813H56.7011C56.6701 16.5757 56.704 16.8734 56.8003 17.1533C56.8966 17.4332 57.0529 17.6885 57.2583 17.9011C57.7392 18.3144 58.3627 18.5214 58.9943 18.4774C59.5809 18.5044 60.1601 18.3366 60.6421 18C60.8418 17.855 61.0034 17.6635 61.1129 17.4419C61.2224 17.2203 61.2765 16.9753 61.2706 16.728C61.2831 16.4886 61.2366 16.2498 61.1352 16.0327C61.0339 15.8156 60.8809 15.6269 60.6896 15.4833C60.2004 15.16 59.6196 15.0056 59.0351 15.0434C58.0255 15.0667 57.0257 14.8407 56.1235 14.3852C55.3124 13.9646 54.6416 13.315 54.1938 12.5165C53.7255 11.6584 53.4911 10.6914 53.5143 9.71331C53.4995 8.75738 53.7412 7.81505 54.2142 6.9852C54.6751 6.18802 55.3512 5.53784 56.1643 5.10961C57.043 4.64754 58.0228 4.4131 59.0147 4.42759C59.8027 4.41915 60.5818 4.59425 61.291 4.93911L62.4665 3.40454L64.8039 5.17441L63.4449 6.81469C64.1244 7.62578 64.4866 8.65727 64.4642 9.71673C64.47 10.4724 64.2854 11.2173 63.9274 11.8822C63.5669 12.5448 63.0458 13.1055 62.4121 13.5122C63.0632 13.7992 63.6202 14.265 64.0191 14.8558ZM60.7372 11.5173C60.9596 11.2736 61.1318 10.9882 61.2438 10.6774C61.3557 10.3666 61.4053 10.0366 61.3895 9.70649C61.406 9.37869 61.3578 9.05088 61.2476 8.74187C61.1374 8.43285 60.9674 8.14876 60.7474 7.90594C60.5256 7.67711 60.258 7.49803 59.9623 7.38047C59.6666 7.26292 59.3494 7.20956 59.0317 7.22391C58.7169 7.21283 58.4032 7.26776 58.1107 7.3852C57.8183 7.50263 57.5534 7.67999 57.333 7.90594C57.1113 8.14789 56.9398 8.43169 56.8284 8.7408C56.717 9.04992 56.6679 9.37817 56.6841 9.70649C56.6564 10.3689 56.8894 11.0157 57.333 11.5071C57.5521 11.7347 57.8167 11.9132 58.1095 12.0308C58.4023 12.1484 58.7166 12.2023 59.0317 12.1891C59.3478 12.2024 59.6631 12.1485 59.9571 12.031C60.251 11.9135 60.5168 11.7349 60.7372 11.5071V11.5173Z" fill="white"/>
<path d="M76.5759 4.68633V15.2237H73.8172L73.6134 13.9653C73.2029 14.4442 72.6908 14.8248 72.1147 15.0791C71.5386 15.3335 70.913 15.4551 70.2839 15.4351C69.4057 15.4533 68.541 15.2165 67.7936 14.7531C67.0573 14.279 66.4687 13.6066 66.0949 12.8127C65.6773 11.9229 65.4692 10.9486 65.4868 9.96523C65.4692 8.98181 65.6773 8.00753 66.0949 7.11776C66.4687 6.32389 67.0573 5.65151 67.7936 5.17739C68.541 4.714 69.4057 4.47716 70.2839 4.49536C70.9246 4.48772 71.5599 4.61432 72.1491 4.86708C72.7121 5.11051 73.2128 5.47894 73.6134 5.94467L73.8172 4.70679L76.5759 4.68633ZM72.7606 11.8851C73.2254 11.353 73.4686 10.662 73.4401 9.95501C73.4686 9.24797 73.2254 8.55696 72.7606 8.02485C72.5433 7.78394 72.2764 7.59331 71.9784 7.46613C71.6804 7.33894 71.3584 7.27826 71.0348 7.28827C70.7115 7.27704 70.3898 7.33823 70.093 7.46742C69.7962 7.5966 69.5318 7.79052 69.3191 8.03509C68.8648 8.5682 68.6281 9.25405 68.6566 9.95501C68.6281 10.656 68.8648 11.3418 69.3191 11.8749C69.5318 12.1195 69.7962 12.3134 70.093 12.4426C70.3898 12.5718 70.7115 12.633 71.0348 12.6217C71.3579 12.6326 71.6795 12.573 71.9775 12.447C72.2755 12.321 72.5427 12.1316 72.7606 11.892V11.8851Z" fill="white"/>
<path d="M78.7203 3.13851C78.5486 2.96928 78.4138 2.76611 78.3243 2.54188C78.2348 2.31765 78.1927 2.07725 78.2005 1.83583C78.1918 1.59086 78.2345 1.34679 78.3258 1.11944C78.4171 0.892089 78.555 0.686537 78.7305 0.516107C78.9078 0.344486 79.1176 0.210443 79.3476 0.121976C79.5776 0.0335082 79.8229 -0.00757667 80.0691 0.00117202C80.3157 -0.00764871 80.5616 0.0333918 80.7922 0.121851C81.0227 0.21031 81.2332 0.344386 81.4111 0.516107C81.5855 0.687218 81.7224 0.892966 81.813 1.12021C81.9037 1.34745 81.9462 1.59119 81.9376 1.83583C81.9453 2.07692 81.9034 2.31701 81.8146 2.54113C81.7257 2.76525 81.5918 2.96861 81.4212 3.13851C81.241 3.31157 81.0276 3.44612 80.794 3.53404C80.5604 3.62196 80.3115 3.66143 80.0623 3.65003C79.8158 3.6595 79.57 3.61909 79.3395 3.53121C79.1089 3.44333 78.8984 3.30978 78.7203 3.13851ZM78.4655 4.69354H81.6523V15.2309H78.4655V4.69354Z" fill="white"/>
<path d="M89.8252 14.7943C89.0095 14.3613 88.3384 13.6972 87.8955 12.8846C87.4268 11.991 87.1929 10.9922 87.216 9.98255C87.1921 8.97721 87.4261 7.98256 87.8955 7.09415C88.342 6.27646 89.0114 5.6034 89.8252 5.15377C90.7052 4.68196 91.6919 4.44699 92.6892 4.47174C93.4193 4.46848 94.143 4.60866 94.8194 4.88438C95.4994 5.16479 96.1146 5.58267 96.6268 6.11202L94.8602 8.13765C94.5978 7.87136 94.285 7.66054 93.9401 7.51763C93.5953 7.37471 93.2254 7.30261 92.8523 7.30557C92.5193 7.29342 92.1876 7.35285 91.8794 7.47989C91.5712 7.60693 91.2936 7.79865 91.0653 8.04218C90.5949 8.57095 90.3508 9.26431 90.3858 9.97231C90.3541 10.6798 90.5978 11.372 91.0653 11.9024C91.2944 12.1478 91.5735 12.3407 91.8837 12.4678C92.1939 12.595 92.5278 12.6534 92.8625 12.639C93.2587 12.6439 93.6514 12.5647 94.015 12.4066C94.3786 12.2485 94.7048 12.0151 94.9723 11.7217L96.7797 13.7269C96.2688 14.2842 95.6471 14.7279 94.9549 15.0292C94.2626 15.3305 93.5151 15.4828 92.7606 15.4763C91.7409 15.4974 90.732 15.263 89.8252 14.7943Z" fill="white"/>
<path d="M99.5538 14.7705C98.7406 14.3282 98.0735 13.6574 97.6342 12.8404C97.17 11.9537 96.9363 10.9637 96.9547 9.96223C96.9363 8.96073 97.17 7.97078 97.6342 7.08409C98.0735 6.26705 98.7406 5.59629 99.5538 5.15393C100.451 4.67921 101.455 4.44433 102.469 4.4719C103.485 4.4456 104.49 4.68037 105.39 5.15393C106.209 5.58963 106.881 6.25734 107.324 7.07385C107.789 7.95996 108.023 8.95034 108.003 9.95201C108.023 10.9537 107.789 11.9441 107.324 12.8302C106.883 13.65 106.212 14.3213 105.394 14.7603C104.494 15.2339 103.488 15.4686 102.472 15.4423C101.458 15.4736 100.453 15.2423 99.5538 14.7705ZM104.174 11.8821C104.62 11.3449 104.851 10.6608 104.823 9.96223C104.851 9.26369 104.62 8.57961 104.174 8.04234C103.964 7.79891 103.703 7.60556 103.409 7.47637C103.115 7.34717 102.796 7.28539 102.476 7.29551C102.155 7.28317 101.835 7.34394 101.541 7.47329C101.247 7.60263 100.985 7.79718 100.777 8.04234C100.329 8.5783 100.096 9.26301 100.125 9.96223C100.096 10.6614 100.329 11.3462 100.777 11.8821C100.985 12.1273 101.247 12.3219 101.541 12.4512C101.835 12.5805 102.155 12.6413 102.476 12.629C102.796 12.6391 103.115 12.5773 103.409 12.4481C103.703 12.3189 103.964 12.1256 104.174 11.8821Z" fill="white"/>
<path d="M119.829 4.68634V15.2237H117.067L116.863 13.9654C116.452 14.4442 115.94 14.8248 115.364 15.0791C114.788 15.3335 114.162 15.4551 113.533 15.4351C112.656 15.4534 111.792 15.2166 111.046 14.7531C110.309 14.28 109.72 13.6073 109.348 12.8127C108.927 11.9238 108.718 10.9491 108.736 9.96524C108.718 8.9814 108.927 8.00674 109.348 7.11778C109.72 6.32318 110.309 5.65053 111.046 5.1774C111.792 4.71393 112.656 4.47706 113.533 4.49537C114.175 4.48805 114.811 4.61464 115.402 4.86709C115.964 5.11065 116.463 5.47911 116.863 5.94468L117.067 4.7068L119.829 4.68634ZM116.01 11.8852C116.478 11.3547 116.721 10.6625 116.69 9.95502C116.721 9.2475 116.478 8.55533 116.01 8.02487C115.793 7.78358 115.526 7.5927 115.228 7.46549C114.93 7.33828 114.608 7.27781 114.284 7.28828C113.964 7.2803 113.646 7.34306 113.352 7.47211C113.059 7.60116 112.797 7.79335 112.585 8.03511C112.134 8.56956 111.899 9.25476 111.926 9.95502C111.899 10.6553 112.134 11.3405 112.585 11.8749C112.797 12.1167 113.059 12.3089 113.352 12.4379C113.646 12.567 113.964 12.6297 114.284 12.6218C114.607 12.6331 114.929 12.5737 115.227 12.4476C115.525 12.3216 115.792 12.132 116.01 11.892V11.8852Z" fill="white"/>
<path d="M123.756 14.7943C122.941 14.3613 122.27 13.6972 121.827 12.8846C121.358 11.991 121.124 10.9922 121.147 9.98255C121.123 8.97721 121.357 7.98256 121.827 7.09415C122.273 6.27646 122.943 5.6034 123.756 5.15377C124.636 4.68196 125.623 4.44699 126.62 4.47174C127.35 4.46848 128.074 4.60866 128.751 4.88438C129.431 5.16479 130.046 5.58267 130.558 6.11202L128.791 8.13765C128.529 7.87136 128.216 7.66054 127.871 7.51763C127.526 7.37471 127.157 7.30261 126.783 7.30557C126.451 7.29364 126.119 7.35318 125.811 7.4802C125.503 7.60723 125.225 7.79883 124.996 8.04218C124.526 8.57095 124.282 9.26431 124.317 9.97231C124.285 10.6798 124.529 11.372 124.996 11.9024C125.226 12.1475 125.505 12.3401 125.815 12.4672C126.125 12.5943 126.459 12.6529 126.794 12.639C127.19 12.6439 127.583 12.5647 127.946 12.4066C128.31 12.2485 128.636 12.0151 128.903 11.7217L130.711 13.7269C130.199 14.2828 129.576 14.7248 128.883 15.0243C128.19 15.3239 127.443 15.4744 126.688 15.4661C125.671 15.4897 124.663 15.2589 123.756 14.7943Z" fill="white"/>
<path d="M140.913 5.76067C141.64 6.62685 142.002 7.79992 142 9.27993V15.2306H138.813V9.46067C138.847 8.88747 138.677 8.32081 138.334 7.86131C138.171 7.66952 137.967 7.5178 137.737 7.41787C137.506 7.31795 137.256 7.27248 137.006 7.285C136.72 7.27532 136.437 7.32971 136.175 7.44416C135.914 7.55862 135.681 7.73026 135.494 7.94657C135.091 8.42948 134.884 9.0465 134.913 9.67551V15.2204H131.726V0.301025H134.913V5.84593C135.283 5.39578 135.751 5.03689 136.281 4.79687C136.811 4.55684 137.389 4.44208 137.97 4.46141C138.527 4.43657 139.082 4.54086 139.593 4.76619C140.103 4.99151 140.555 5.33181 140.913 5.76067Z" fill="white"/>
<path d="M72.1702 22.3901V24.7567H71.4913V24.2428C71.3427 24.4359 71.1474 24.5883 70.9236 24.6859C70.6998 24.7834 70.4549 24.8229 70.2116 24.8007C69.3257 24.8007 68.7656 24.3307 68.7656 23.6546C68.7656 23.0325 69.1729 22.5186 70.3372 22.5186H71.454V22.38C71.454 21.7849 71.1146 21.4401 70.4085 21.4401C69.9608 21.4361 69.5251 21.5839 69.173 21.8593L68.8776 21.3319C69.3437 20.9901 69.9115 20.8139 70.49 20.8315C71.566 20.8146 72.1702 21.3285 72.1702 22.3901ZM71.4608 23.5498V23.0088H70.3712C69.6719 23.0088 69.4751 23.2793 69.4751 23.6106C69.4751 23.9994 69.8145 24.2395 70.3338 24.2395C70.5707 24.2575 70.8072 24.2005 71.0096 24.0766C71.212 23.9527 71.3699 23.7683 71.4608 23.5498Z" fill="white"/>
<path d="M78.3695 20.8145V21.4906C78.3152 21.4873 78.2608 21.4873 78.2065 21.4906C77.4496 21.4906 76.9778 21.9504 76.9778 22.8024V24.7397H76.2717V20.8517H76.9506V21.5042C77.1984 21.0477 77.6838 20.8145 78.3695 20.8145Z" fill="white"/>
<path d="M83.1181 23.0289H79.9511C79.9961 23.3628 80.168 23.6668 80.4314 23.8781C80.6947 24.0895 81.0295 24.1922 81.3666 24.1649C81.5771 24.1728 81.7868 24.1351 81.9814 24.0546C82.1759 23.974 82.3506 23.8525 82.4935 23.6983L82.8839 24.1514C82.6895 24.3632 82.4506 24.5296 82.1842 24.6389C81.9179 24.7482 81.6306 24.7976 81.3428 24.7836C80.0835 24.7836 79.2451 23.9553 79.2451 22.7957C79.2343 22.5352 79.2774 22.2753 79.3716 22.0321C79.4658 21.7889 79.6092 21.5675 79.7928 21.3818C79.9764 21.196 80.1964 21.0498 80.4391 20.9522C80.6818 20.8546 80.942 20.8077 81.2037 20.8144C81.466 20.8072 81.7269 20.8547 81.9697 20.9538C82.2125 21.0529 82.4318 21.2014 82.6137 21.3898C82.7955 21.5783 82.9358 21.8025 83.0256 22.048C83.1154 22.2936 83.1527 22.5552 83.1351 22.8159C83.1343 22.8872 83.1287 22.9584 83.1181 23.0289ZM79.9511 22.5218H82.4562C82.4311 22.2115 82.2869 21.9229 82.0536 21.7157C81.8204 21.5086 81.516 21.3989 81.2037 21.4095C80.8916 21.3997 80.5876 21.5097 80.3545 21.7167C80.1215 21.9236 79.9771 22.2119 79.9511 22.5218Z" fill="white"/>
<path d="M87.5 22.39V24.7567H86.8212V24.2428C86.6716 24.4356 86.4756 24.5879 86.2513 24.6854C86.0271 24.7829 85.7818 24.8225 85.5381 24.8006C84.6555 24.8006 84.0955 24.3307 84.0955 23.6545C84.0955 23.0324 84.4994 22.5185 85.6637 22.5185H86.7838V22.3799C86.7838 21.7849 86.4444 21.44 85.7384 21.44C85.2895 21.4355 84.8526 21.5834 84.4994 21.8592L84.2041 21.3318C84.6704 20.9905 85.238 20.8144 85.8164 20.8315C86.8958 20.8146 87.5 21.3284 87.5 22.39ZM86.794 23.5497V23.0087H85.7044C85.0052 23.0087 84.8049 23.2792 84.8049 23.6105C84.8049 23.9993 85.1443 24.2394 85.6671 24.2394C85.9038 24.2569 86.1401 24.1996 86.3424 24.0758C86.5447 23.9521 86.7027 23.768 86.794 23.5497Z" fill="white"/>
<path d="M88.7225 24.3274L89.0178 23.7696C89.421 24.0336 89.8929 24.1746 90.3755 24.1753C91.0307 24.1753 91.3056 23.9758 91.3056 23.6445C91.3056 22.7722 88.8379 23.5295 88.8379 21.9811C88.8379 21.2846 89.4625 20.8147 90.4638 20.8147C90.9594 20.802 91.4496 20.9185 91.8861 21.1527L91.584 21.7106C91.2465 21.5006 90.8548 21.3936 90.457 21.4029C89.8392 21.4029 89.5371 21.6295 89.5371 21.9371C89.5371 22.8533 92.0117 22.1062 92.0117 23.6276C92.0117 24.3308 91.3633 24.7805 90.3144 24.7805C89.7502 24.7921 89.1954 24.6342 88.7225 24.3274Z" fill="white"/>
<path d="M92.9473 22.7957C92.9404 22.5296 92.9888 22.265 93.0893 22.0184C93.1899 21.7718 93.3405 21.5485 93.5316 21.3625C93.7228 21.1765 93.9505 21.0319 94.2004 20.9376C94.4503 20.8433 94.717 20.8014 94.9839 20.8145C95.2511 20.8003 95.5183 20.8416 95.7687 20.9355C96.019 21.0294 96.2471 21.174 96.4385 21.3602C96.6299 21.5464 96.7804 21.7701 96.8806 22.0172C96.9808 22.2642 97.0285 22.5294 97.0206 22.7957C97.0284 23.0623 96.9808 23.3277 96.8806 23.5751C96.7805 23.8225 96.6301 24.0466 96.4388 24.2333C96.2475 24.4201 96.0195 24.5653 95.7691 24.66C95.5188 24.7547 95.2514 24.7968 94.9839 24.7837C94.7167 24.7958 94.4498 24.753 94.1999 24.658C93.95 24.5629 93.7224 24.4176 93.5313 24.2311C93.3403 24.0446 93.1898 23.8209 93.0893 23.5739C92.9888 23.327 92.9405 23.0621 92.9473 22.7957ZM96.2908 22.7957C96.3012 22.6194 96.2747 22.4429 96.2132 22.2773C96.1516 22.1117 96.0563 21.9606 95.9332 21.8336C95.8101 21.7065 95.6619 21.6062 95.4979 21.5391C95.3339 21.4719 95.1578 21.4393 94.9805 21.4433C94.8027 21.4389 94.6259 21.4711 94.4612 21.538C94.2965 21.6049 94.1475 21.705 94.0235 21.832C93.8995 21.959 93.8032 22.1102 93.7407 22.276C93.6781 22.4419 93.6507 22.6188 93.6601 22.7957C93.6507 22.9726 93.6781 23.1495 93.7407 23.3154C93.8032 23.4812 93.8995 23.6324 94.0235 23.7594C94.1475 23.8864 94.2965 23.9865 94.4612 24.0534C94.6259 24.1203 94.8027 24.1525 94.9805 24.1481C95.1576 24.1516 95.3336 24.1186 95.4973 24.0513C95.661 23.984 95.809 23.8837 95.932 23.7567C96.055 23.6298 96.1504 23.4789 96.2121 23.3135C96.2739 23.1481 96.3006 22.9719 96.2908 22.7957Z" fill="white"/>
<path d="M102.094 22.5015V24.7397H101.388V22.5962C101.388 21.8321 101.004 21.4602 100.335 21.4602C99.5852 21.4602 99.0964 21.9065 99.0964 22.7483V24.7532H98.3903V20.8652H99.0692V21.45C99.2363 21.2418 99.4511 21.0766 99.6957 20.9683C99.9402 20.86 100.207 20.8119 100.474 20.828C101.425 20.8144 102.094 21.3554 102.094 22.5015Z" fill="white"/>
<path d="M106.991 20.5138V20.8519H108.125V21.43H107.015V24.7399H106.309V21.43H105.63V20.8519H106.309V20.5138C106.295 20.3432 106.319 20.1717 106.379 20.0114C106.439 19.8511 106.534 19.706 106.657 19.5863C106.78 19.4666 106.927 19.3753 107.089 19.3188C107.252 19.2623 107.424 19.2421 107.595 19.2595C107.879 19.2474 108.158 19.3269 108.393 19.486L108.179 20.0202C108.021 19.9034 107.83 19.8395 107.633 19.8376C107.205 19.8309 106.991 20.0675 106.991 20.5138Z" fill="white"/>
<path d="M108.78 22.7957C108.773 22.5296 108.821 22.265 108.922 22.0184C109.022 21.7718 109.173 21.5485 109.364 21.3625C109.555 21.1765 109.783 21.0319 110.033 20.9376C110.283 20.8433 110.55 20.8014 110.816 20.8145C111.084 20.8003 111.351 20.8416 111.601 20.9355C111.852 21.0294 112.08 21.174 112.271 21.3602C112.462 21.5464 112.613 21.7701 112.713 22.0172C112.813 22.2642 112.861 22.5294 112.853 22.7957C112.861 23.0623 112.813 23.3277 112.713 23.5751C112.613 23.8225 112.463 24.0466 112.271 24.2333C112.08 24.4201 111.852 24.5653 111.602 24.66C111.351 24.7547 111.084 24.7968 110.816 24.7837C110.549 24.7958 110.282 24.753 110.032 24.658C109.782 24.5629 109.555 24.4176 109.364 24.2311C109.173 24.0446 109.022 23.8209 108.922 23.5739C108.821 23.327 108.773 23.0621 108.78 22.7957ZM112.123 22.7957C112.134 22.6194 112.107 22.4429 112.046 22.2773C111.984 22.1117 111.889 21.9606 111.766 21.8336C111.643 21.7065 111.494 21.6062 111.33 21.5391C111.166 21.4719 110.99 21.4393 110.813 21.4433C110.635 21.4389 110.458 21.4711 110.294 21.538C110.129 21.6049 109.98 21.705 109.856 21.832C109.732 21.959 109.636 22.1102 109.573 22.276C109.511 22.4419 109.483 22.6188 109.493 22.7957C109.483 22.9726 109.511 23.1495 109.573 23.3154C109.636 23.4812 109.732 23.6324 109.856 23.7594C109.98 23.8864 110.129 23.9865 110.294 24.0534C110.458 24.1203 110.635 24.1525 110.813 24.1481C110.99 24.1516 111.166 24.1186 111.33 24.0513C111.494 23.984 111.642 23.8837 111.765 23.7567C111.888 23.6298 111.983 23.4789 112.045 23.3135C112.106 23.1481 112.133 22.9719 112.123 22.7957Z" fill="white"/>
<path d="M116.318 20.8145V21.4906C116.264 21.4873 116.209 21.4873 116.155 21.4906C115.398 21.4906 114.926 21.9504 114.926 22.8024V24.7397H114.22V20.8517H114.899V21.5042C115.161 21.0477 115.632 20.8145 116.318 20.8145Z" fill="white"/>
<path d="M124.072 22.7962C124.086 23.0587 124.044 23.3212 123.95 23.5669C123.856 23.8125 123.712 24.036 123.526 24.223C123.34 24.41 123.118 24.5565 122.872 24.6531C122.627 24.7497 122.364 24.7943 122.1 24.7841C121.83 24.7934 121.562 24.7367 121.32 24.6188C121.077 24.5009 120.867 24.3255 120.708 24.1079V24.7233H120.03V19.28H120.739V21.4201C120.901 21.2179 121.108 21.0563 121.344 20.9483C121.579 20.8402 121.837 20.7888 122.097 20.798C122.362 20.7862 122.627 20.83 122.874 20.9266C123.121 21.0233 123.345 21.1706 123.531 21.359C123.717 21.5474 123.862 21.7727 123.955 22.0203C124.048 22.2679 124.088 22.5322 124.072 22.7962ZM123.359 22.7962C123.369 22.6194 123.342 22.4426 123.28 22.2767C123.218 22.1109 123.122 21.9597 122.998 21.8326C122.875 21.7055 122.726 21.6054 122.561 21.5385C122.397 21.4716 122.22 21.4393 122.042 21.4438C121.865 21.4403 121.689 21.4732 121.525 21.5405C121.361 21.6078 121.213 21.7081 121.09 21.835C120.967 21.9619 120.871 22.1127 120.809 22.2781C120.747 22.4435 120.719 22.6198 120.729 22.7962C120.719 22.9725 120.747 23.1488 120.809 23.3142C120.871 23.4796 120.967 23.6304 121.09 23.7573C121.213 23.8842 121.361 23.9845 121.525 24.0518C121.689 24.1191 121.865 24.152 122.042 24.1485C122.22 24.1525 122.396 24.1199 122.561 24.0528C122.725 23.9857 122.874 23.8856 122.997 23.7586C123.121 23.6317 123.217 23.4807 123.279 23.315C123.342 23.1494 123.369 22.9728 123.359 22.7962Z" fill="white"/>
<path d="M128.97 23.0289H125.803C125.848 23.3628 126.02 23.6668 126.283 23.8781C126.546 24.0895 126.881 24.1922 127.218 24.1649C127.429 24.1725 127.638 24.1348 127.833 24.0543C128.027 23.9737 128.202 23.8523 128.345 23.6984L128.739 24.1514C128.545 24.3631 128.307 24.5296 128.041 24.6389C127.775 24.7481 127.489 24.7976 127.201 24.7836C125.942 24.7836 125.104 23.9553 125.104 22.7957C125.093 22.5369 125.135 22.2788 125.228 22.0369C125.321 21.7951 125.463 21.5748 125.644 21.3893C125.826 21.2038 126.043 21.0572 126.283 20.9584C126.524 20.8595 126.782 20.8105 127.042 20.8144C127.304 20.8072 127.565 20.8547 127.807 20.9538C128.05 21.0529 128.269 21.2015 128.451 21.39C128.632 21.5785 128.772 21.8027 128.862 22.0483C128.951 22.2939 128.988 22.5554 128.97 22.8159C128.983 22.8768 128.977 22.9647 128.97 23.0289ZM125.803 22.5218H128.308C128.283 22.2091 128.137 21.9184 127.9 21.7109C127.664 21.5034 127.356 21.3953 127.042 21.4095C126.732 21.4024 126.431 21.5137 126.2 21.7205C125.97 21.9273 125.828 22.214 125.803 22.5218Z" fill="white"/>
<path d="M130.243 19.6481C130.243 19.5861 130.255 19.5247 130.28 19.4677C130.304 19.4106 130.339 19.3589 130.384 19.3157C130.429 19.2725 130.481 19.2387 130.539 19.2162C130.597 19.1937 130.659 19.1831 130.722 19.1849C130.783 19.1826 130.844 19.1925 130.901 19.214C130.958 19.2354 131.011 19.268 131.055 19.3099C131.1 19.3517 131.136 19.402 131.161 19.4577C131.185 19.5135 131.199 19.5736 131.2 19.6346C131.201 19.6971 131.189 19.7592 131.165 19.8171C131.142 19.875 131.106 19.9274 131.062 19.9714C131.017 20.0153 130.964 20.0497 130.905 20.0726C130.847 20.0955 130.784 20.1063 130.722 20.1045C130.66 20.1068 130.598 20.0967 130.54 20.0748C130.483 20.0529 130.43 20.0197 130.385 19.9771C130.341 19.9346 130.305 19.8835 130.281 19.827C130.256 19.7705 130.243 19.7096 130.243 19.6481ZM130.369 20.8517H131.075V24.7397H130.369V20.8517Z" fill="white"/>
<path d="M136.546 22.5016V24.7398H135.837V22.5963C135.837 21.8322 135.456 21.4603 134.784 21.4603C134.034 21.4603 133.549 21.9066 133.549 22.7485V24.7533H132.812V20.8653H133.491V21.4502C133.658 21.2421 133.873 21.0771 134.118 20.9688C134.362 20.8606 134.629 20.8123 134.896 20.8281C135.867 20.8146 136.546 21.3555 136.546 22.5016Z" fill="white"/>
<path d="M142 20.8518V24.2124C142 25.5817 141.301 26.2071 139.963 26.2071C139.3 26.2356 138.646 26.035 138.113 25.6391L138.453 25.0982C138.879 25.4242 139.403 25.597 139.94 25.5884C140.86 25.5884 141.28 25.1658 141.28 24.2834V23.9757C141.105 24.1733 140.889 24.3297 140.646 24.4338C140.403 24.5378 140.14 24.5869 139.875 24.5775C139.619 24.5914 139.363 24.5528 139.122 24.4639C138.882 24.3751 138.663 24.2379 138.478 24.061C138.293 23.8841 138.146 23.6712 138.047 23.4355C137.949 23.1998 137.899 22.9464 137.903 22.691C137.9 22.4353 137.949 22.1816 138.049 21.9459C138.149 21.7102 138.297 21.4976 138.483 21.3215C138.669 21.1453 138.889 21.0093 139.131 20.9221C139.372 20.8349 139.629 20.7982 139.885 20.8146C140.159 20.8035 140.431 20.8554 140.682 20.9663C140.932 21.0771 141.153 21.2438 141.328 21.4536V20.8518H142ZM141.321 22.691C141.324 22.5184 141.292 22.347 141.225 22.1877C141.158 22.0285 141.058 21.885 140.932 21.7663C140.806 21.6476 140.657 21.5563 140.494 21.4984C140.33 21.4405 140.157 21.4172 139.984 21.4299C139.809 21.4142 139.633 21.4353 139.468 21.4918C139.302 21.5484 139.15 21.6392 139.022 21.7582C138.894 21.8772 138.792 22.0218 138.724 22.1825C138.656 22.3432 138.622 22.5165 138.626 22.691C138.623 22.8659 138.656 23.0395 138.724 23.2007C138.792 23.3619 138.894 23.5071 139.022 23.6269C139.149 23.7467 139.301 23.8384 139.467 23.8962C139.633 23.9539 139.809 23.9764 139.984 23.9622C140.155 23.9706 140.327 23.9437 140.488 23.8833C140.648 23.8229 140.795 23.7301 140.918 23.6109C141.041 23.4917 141.138 23.3485 141.204 23.1902C141.269 23.032 141.301 22.8621 141.297 22.691H141.321Z" fill="white"/>
<path d="M14.4271 14.45C14.8557 14.021 15.232 13.5428 15.5482 13.0253C15.2324 12.5076 14.8561 12.0293 14.4271 11.6007C13.9775 11.1528 13.4745 10.7619 12.9297 10.4365C12.4404 10.742 11.9872 11.1018 11.5787 11.5091C11.1326 11.9563 10.7431 12.4566 10.419 12.9989C10.7317 13.5099 11.1039 13.982 11.5279 14.4052C11.9749 14.8515 12.4751 15.2411 13.0172 15.5653C13.5287 15.2493 14.0019 14.875 14.4271 14.45ZM11.9388 12.9826C11.9386 12.8546 11.9635 12.7277 12.0123 12.6094C12.061 12.491 12.1325 12.3834 12.2228 12.2926C12.3132 12.2019 12.4204 12.1299 12.5386 12.0807C12.6567 12.0314 12.7834 12.0059 12.9114 12.0057C13.0395 12.0057 13.1664 12.031 13.2848 12.0801C13.4032 12.1292 13.5107 12.2012 13.6012 12.2919C13.6917 12.3827 13.7635 12.4904 13.8123 12.6089C13.8612 12.7274 13.8862 12.8544 13.8859 12.9826C13.8862 13.1108 13.8612 13.2378 13.8123 13.3563C13.7635 13.4748 13.6917 13.5825 13.6012 13.6732C13.5107 13.764 13.4032 13.836 13.2848 13.8851C13.1664 13.9342 13.0395 13.9595 12.9114 13.9595C12.654 13.959 12.4072 13.8566 12.225 13.6747C12.0428 13.4928 11.9399 13.2462 11.9388 12.9887V12.9826Z" fill="white"/>
<path d="M15.9617 12.2539C16.3922 11.3206 16.6295 10.3099 16.6596 9.28247C15.6335 9.32392 14.6264 9.57319 13.6993 10.0152C14.1556 10.3217 14.5814 10.6713 14.9709 11.0592C15.3376 11.4257 15.6694 11.8257 15.9617 12.2539Z" fill="white"/>
<path d="M22.3378 14.4094C22.784 13.9623 23.1734 13.4619 23.4975 12.9197C23.183 12.4099 22.8109 11.938 22.3887 11.5133C21.0658 10.188 19.3016 9.39621 17.4324 9.28882C17.3972 10.595 17.0564 11.8748 16.4375 13.0255C17.0348 14.1356 17.3735 15.3663 17.4283 16.6258C19.2801 16.5101 21.026 15.722 22.3378 14.4094Z" fill="white"/>
<path d="M11.0332 22.8699C9.58625 21.423 8.71792 19.4969 8.59173 17.4542C6.51455 17.3526 4.54931 16.4821 3.078 15.0119C2.71125 14.6454 2.37952 14.2454 2.08715 13.8172C1.94677 13.6137 1.81452 13.4102 1.69244 13.1863C1.73736 16.1218 2.92492 18.924 5.00272 20.9975C7.10573 23.1079 9.95875 24.2992 12.9376 24.3108C12.7199 24.1907 12.5063 24.0625 12.3008 23.9241C11.8445 23.6154 11.4199 23.2623 11.0332 22.8699Z" fill="white"/>
<path d="M3.07434 11.0595C4.53087 9.60266 6.47262 8.73328 8.52907 8.6172C8.62225 6.52068 9.49776 4.53527 10.9828 3.0529C11.3435 2.69296 11.7357 2.36603 12.1547 2.07599C12.3582 1.93352 12.5718 1.80123 12.7895 1.66895C9.86125 1.7184 7.06721 2.90599 4.99906 4.98025C2.90012 7.07438 1.71076 9.91159 1.68878 12.8769C1.81086 12.6612 1.94311 12.4475 2.08349 12.244C2.37637 11.8193 2.70808 11.4227 3.07434 11.0595Z" fill="white"/>
<path d="M9.30011 8.60088C10.5622 8.64049 11.799 8.96543 12.9176 9.55133C14.061 8.91971 15.3358 8.56361 16.6409 8.51133C16.5137 6.67492 15.7267 4.94651 14.4252 3.6451C13.9782 3.19945 13.478 2.81051 12.9359 2.48706C12.4237 2.8005 11.9504 3.17351 11.5259 3.5983C10.1903 4.93257 9.39716 6.71517 9.30011 8.60088Z" fill="white"/>
<path d="M15.9612 13.8071C15.6688 14.2354 15.3371 14.6353 14.9703 15.0018C14.6081 15.3619 14.2138 15.6882 13.7923 15.9767C14.6897 16.3811 15.6571 16.6071 16.6407 16.6422C16.6003 15.662 16.3695 14.6991 15.9612 13.8071Z" fill="white"/>
<path d="M14.9701 3.10158C16.4172 4.54764 17.2855 6.47314 17.4117 8.51528C19.4904 8.62049 21.4557 9.49537 22.9254 10.9698C23.2838 11.3286 23.6093 11.7189 23.8979 12.1359C24.0403 12.3395 24.1726 12.543 24.3048 12.7689C24.2526 9.8445 23.0655 7.05506 20.9946 4.99027C18.8965 2.88517 16.0516 1.69493 13.08 1.67896C13.2998 1.79903 13.5154 1.92928 13.7209 2.06768C14.1693 2.37174 14.5876 2.71794 14.9701 3.10158Z" fill="white"/>
<path d="M12.9949 3.98668e-06C9.54845 3.98668e-06 6.24314 1.36954 3.80612 3.80732C1.3691 6.2451 0 9.55144 0 12.999C-4.22316e-08 16.4467 1.36904 19.7533 3.806 22.1914C6.24296 24.6295 9.54826 25.9995 12.9949 26C14.7032 26.0011 16.395 25.6652 17.9735 25.0117C19.5519 24.3582 20.9861 23.3998 22.194 22.1914C23.4019 20.9829 24.3597 19.5481 25.0128 17.9691C25.6659 16.39 26.0013 14.6977 26 12.9888C25.9987 11.2818 25.6612 9.59169 25.0069 8.01509C24.3526 6.43849 23.3943 5.00625 22.1867 3.80012C20.979 2.594 19.5458 1.63762 17.9686 0.985592C16.3915 0.333567 14.7014 -0.00133288 12.9949 3.98668e-06ZM12.9949 25.0333C11.4155 25.0355 9.85125 24.7254 8.39208 24.1208C6.9329 23.5162 5.6076 22.629 4.49237 21.5103C3.37305 20.3922 2.48597 19.0637 1.88222 17.6012C1.27848 16.1387 0.969999 14.5711 0.974566 12.9888C0.971452 11.4082 1.28063 9.84263 1.88433 8.38198C2.48804 6.92132 3.37436 5.59441 4.49237 4.4775C5.60787 3.35914 6.93323 2.4722 8.39234 1.86763C9.85145 1.26306 11.4156 0.952749 12.9949 0.954525C14.5743 0.952414 16.1385 1.26257 17.5977 1.86716C19.0568 2.47175 20.3822 3.35886 21.4975 4.4775C22.6161 5.59298 23.5033 6.91864 24.1081 8.37826C24.7128 9.83789 25.0232 11.4027 25.0214 12.9827C25.0234 14.5627 24.7132 16.1276 24.1084 17.5873C23.5036 19.0469 22.6163 20.3726 21.4975 21.4879C20.3829 22.608 19.0579 23.4965 17.5986 24.1021C16.1394 24.7078 14.5748 25.0187 12.9949 25.017V25.0333Z" fill="white"/>
<path d="M16.6532 17.4132C15.3858 17.3725 14.144 17.0447 13.0215 16.4546C11.8937 17.0653 10.6407 17.4086 9.35925 17.458C9.48592 19.2949 10.2738 21.0237 11.577 22.3242C12.0263 22.7729 12.5293 23.1646 13.0744 23.4904C13.5634 23.1837 14.0166 22.8233 14.4254 22.4158C15.7626 21.0824 16.5566 19.2994 16.6532 17.4132Z" fill="white"/>
<path d="M11.0334 10.97C11.3772 10.627 11.7495 10.3138 12.1463 10.0338C11.2485 9.6311 10.2812 9.40646 9.29785 9.37231C9.34547 10.3585 9.58385 11.3262 9.99978 12.2216C10.3042 11.7728 10.6502 11.3537 11.0334 10.97Z" fill="white"/>
<path d="M3.61974 11.6008C3.18958 12.0289 2.8125 12.5072 2.49664 13.0255C2.81292 13.5434 3.18996 14.0217 3.61974 14.4501C4.9389 15.7816 6.70317 16.5788 8.57396 16.6889C8.61046 15.4107 8.93821 14.1577 9.53225 13.0255C8.92707 11.9083 8.58405 10.6681 8.5292 9.39868C6.67914 9.5098 4.93331 10.2929 3.61974 11.6008Z" fill="white"/>
<path d="M23.9147 13.6991C23.6104 14.1493 23.2644 14.5698 22.8811 14.9549C21.4235 16.4113 19.4813 17.2806 17.4243 17.3971C17.3292 19.4908 16.4538 21.473 14.9706 22.9533C14.6282 23.2979 14.2558 23.6112 13.8577 23.8895C13.6543 24.032 13.4508 24.1663 13.227 24.2965C16.1461 24.2405 18.9295 23.0534 20.991 20.9852C23.1007 18.8816 24.2917 16.0277 24.3033 13.0479C24.1832 13.2778 24.053 13.4915 23.9147 13.6991Z" fill="white"/>
<path d="M10.9832 14.9545C10.626 14.5951 10.3013 14.2049 10.0127 13.7883C9.6012 14.7015 9.37505 15.6873 9.34741 16.6885C10.3472 16.648 11.329 16.41 12.2365 15.9884C11.787 15.6842 11.3673 15.338 10.9832 14.9545Z" fill="white"/>
</svg>
